<svg xmlns="http://www.w3.org/2000/svg" width="1656" height="1368" viewBox="0 0 1656 1368"><path fill="#231F20" d="M429.605 584.137s-70.906 3.117-79.848 2.547c-8.945-.566 107.293 3.973 64.125-38.582 7.398-4.258 28.074 4.848 37.512-9.078 50.977-75.219 43.59-122.043 49.469-156.578-14.188-57.273-54.785-87.637 26.73-171.477 83.328-130.332 550.676-31.293 612.27 75.84 17.191 29.895 55.219 90.316 9.949 140.441-19.844 21.98-13.32 86.375 0 99.859 13.332 13.488 34.531 40.852 52.633 37.832 7.398-1.238-22.605 6.215-24.191 14.461 8.848 52.488 139.305 78.066 144.211 79.344 0 0-54.469 4.129-79.848 4.676-25.375.559-16.961 56.938 29.934 20.676-1.98 33.961-27.941 42.723-27.941 42.723s-3.621 66.926 2.5 78.941c6.121 12.008 22.949 38.559 75.355 60.137-13.074 7.227-52.902-7.344-51.895-2.293 9.98 53.715-15.523 54.055-15.523 54.055s-41.863 24.914 27.992 1.5c-20.469 74.371-77.23 45.129-77.23 45.129s-12.605 15.977 27.824 27.871c-23.445 17.895-46.406-7.355-46.406-7.355s-5.988 15.609-2.988 20.211c2.988 4.582-21.664-22.949-24.547-14.922-11.879 32.367 24.059 46.594 31.031 69.094-16.453 81.27-204.336 100.098-209.555 102.391-29.441 81.715-82.012 48.363-95.387 41.855-13.383-6.512-178.484 5.777-177.051-2.387-27.941 3.672-40.41 16.984-56.379 21.121-15.965 4.137-94.578 5.992-104.352 8.508-12.898 0 39.582-62.621 42.574-77.312 5.215-17.164-12.07-.992-21.547 14.625-9.473 15.621-1.098-20.082-12.473-18.359-20.402 3.07-22.949 34.895-51.891 44.984-30.938 10.105 91.047-120.219 96.789-126.051 5.746-5.836 12.215-57.195-28.789-46.688-42.035-41.562-83.742-39.402-109.141-39.086 12.949 40.219-9.25 14.398-20.969-2.91-11.711-17.305-4.926-46.523-6.473-54.746-1.543-8.23-12.023 28.652-16.336 10.5-26.824-28.09-14.492-53.914-15.418-66.102-1.066-14.152-11.102 54.473-11.102-21.281.949-16.066 2.16-42.551-1.227-30.637-11.102 57.027-18.195-20.703 1.227-51.074 4.934-17.578-7.535-5.719-10.484 1.996-31.75 83.402-10.898 19.203 7.402-82.559 12.645-26.949-19.422 10.504-30.828 9.648-6.219-.461 28.512-26.238-16.211-17.871-14.207 2.66 8.809-10.785-7.219-19.008 10.172 1.133 19.109-4.824 17.879-16.176 11.719-5.387-8.633 5.391 31.445-1.984 40.082-7.379-13.871-26.098 19.734-27.234 16.031 2.273 7.523-13.125 18.805-18.723 24.055-3.402 5.859-10.492 5.859-10.492z"/><path fill="#FFF" d="M589.328 492.664c-23.504-163.457 167.723-117.617 221.984-117.617 67.426-3.785 215.008-45.164 213.598 59.984 51.18 44.258 75.426 149.129 53.516 151.582-248.918-6-24.113 36.105-97.973 132.879 59.199 49.191 127.012 128.109 80.57 270.602-65.215 78.676-27.16 119.512-51.82 131.418-24.672 11.91-53.473 18.367-84.98 21.781-31.512 3.402-146.531-54.816-210.227-14.812-20.363-40.02 107.047-41.922 118.148-97.527 4.543 33.957 42.07 96.836 39.539 53.883 18.559-41.406 51.137 36.766 47.09 4.059-7.926-63.996 144.73-105.109 131.441-151.527 6.773-90.207-37.496-17.984-102.742 17.934-61.566 34.793-183.211-2.762-231.527-36.453-48.703-33.949-68.258-139.371-23.02-166.695 74.176-44.805 6.883-77.945 38.906-106.883 30.609-34.098 142.961-77.039-122.168-60.703 31.681-64.339 4.669 12.447-20.335-91.905z"/><path fill="#231F20" d="M565.832 543.305c0 16.508 121.531 2.82 136.23-7.07 6.492 19.863 30.27 19.863 58.387 7.07-15.141 14.441 7.703 15.676 22.68 8.555 21.637-10.281 39.48-13.332 57.035-13.332 20.105 0 54.445-1.137 62.789 4.777 41.012 5.484 40.512 5.602 41.293-13.699 8.898 10.711 31.91 15.977 49.734 6.012 16.664-9.309 49.043 13.762 49.043 13.762 17.078 2.574 12.059-33.641.395-60.152-18.508-33.867-88.621-63.695-187.246-25.336-43.973 3.945-87.5 8.66-106.605 3.516-19.09-5.131-234.626-17.416-183.735 75.897zM835.711 685.555c18.438 32.039-59.715 27.406-65.035-5.012-2.531-15.488 28.246-58.82 65.035 5.012zM874.047 675.953c-18.883 30.113 53.98 41.469 60.672 8.223 3.195-15.867-23.063-68.207-60.672-8.223z"/><path fill="#FFF" d="M788.852 698.285c24.961-50.664 52.742 15.832 44.09 29.699.382-11.906-66.184 15.168-44.09-29.699zM883.719 691.473c37.762-43.422 46.852 27.328 34.746 38.801 3.558-11.442-68.219-.325-34.746-38.801z"/><path fill="#231F20" d="M741.266 847.152c0-6.543 65.684-31.938 129.668-35.754 69.035-4.102 140.148-.602 139.711 22.129.438 10.867-100.223-2.758-152.781-2.836-26.591-.031-116.598 30.079-116.598 16.461z"/><g fill="#FFF"><path d="M783.637 283.18c-17.793-17.848-18.539-18.805-4.984-25.816 78.96-40.79 46.941 67.894 4.984 25.816z"/><path d="M791.27 251.082c-24.824 10.137-20.523 20.289-24.957 5.891-26.215-85.227 85.324-30.567 24.957-5.891z"/><path d="M773.934 285.371c-.031-25.195-.188-26.41-14.73-21.777-84.677 26.992 14.827 81.207 14.73 21.777z"/><path d="M743.199 267.859c25.66-7.793 28.715 2.801 23.074-11.176-33.406-82.663-85.492 30.11-23.074 11.176zM773.934 271.906l15.273 66.535s10.465-.418 16.949-2.355c6.481-1.957-32.222-64.18-32.222-64.18z"/></g></svg>