<svg xmlns="http://www.w3.org/2000/svg" width="51" height="60" viewBox="0 -0.583 51 60" overflow="visible"><path fill="#231F20" d="M45.09 49.444c-.895 4.415-11.098 5.438-11.382 5.562-1.6 4.438-4.454 2.626-5.182 2.273-.726-.354-9.693.313-9.615-.13-1.519.2-2.196.923-3.062 1.146-.868.226-5.138.326-5.669.463-.7 0 2.151-3.401 2.312-4.2.283-.932-.655-.054-1.17.795s-.06-1.091-.678-.996c-1.108.166-1.246 1.895-2.818 2.442-1.681.55 4.944-6.53 5.256-6.846.312-.317.849-1.918-.968-3.042-2.339-1.482-4.155-.814-7.17-3.748.733 1.712-.667.615-1.303-.325-.638-.94.096-.84-.246-1.141-.745-.658.163.244-.489.326-1.455-1.526-.896-2.444-.732-3.26.352-1.753.326-.488-.325.082-1.224.489.345-2.989-.142-2.524-.511.488-.837.243.065-2.773 1.234-3.537.238-.242-.413-.405-.163-.978.343-2.968 1.06-4.398.407-.815.678-1.998.337-1.523-1.152 1.604-.079-1.741.254-2.291 1.271-2.095 1.524-3.657 2.038-4.413 2.768-4.086 2.253-5.956 2.571-7.832-.771-3.111-2.976-4.76 1.453-9.313 4.524-7.08 29.911-1.7 33.256 4.118.934 1.624 2.998 4.906.54 7.629"/><path fill="#FFF" d="M12.588 18.918c-1.277-8.879 9.11-6.389 12.058-6.389 3.662-.205 11.678-2.454 11.601 3.259 2.78 2.403 4.099 8.1 2.907 8.232-13.521-.326-1.309 1.962-5.321 7.218 3.217 2.672 6.898 6.958 4.376 14.698-3.541 4.273-1.476 6.491-2.814 7.138-1.341.647-2.903.998-4.615 1.184-1.712.185-7.96-2.978-11.419-.805-1.106-2.174 5.814-2.277 6.417-5.297.247 1.844 2.285 5.259 2.147 2.927 1.008-2.25 2.778 1.997 2.559.22-.432-3.476 7.86-5.709 7.139-8.23.368-4.899-2.036-.977-5.58.975-3.344 1.89-9.952-.15-12.576-1.98-2.646-1.844-3.708-7.569-1.25-9.054 4.029-2.435.373-4.234 2.113-5.806 1.662-1.853 7.765-4.185-6.636-3.297 1.719-3.496.251.675-1.106-4.993z"/><path fill="#231F20" d="M11.311 21.669c0 .896 6.601.152 7.399-.385.354 1.079 1.645 1.079 3.172.385-.822.784.419.852 1.233.464 1.174-.559 2.144-.725 3.097-.725 1.092 0 2.956-.061 3.411.261 2.228.298 2.199.304 2.243-.745.482.582 1.732.868 2.7.327.906-.506 2.665.747 2.665.747.927.14.655-1.827.021-3.268-1.006-1.839-4.813-3.459-10.171-1.376-2.388.215-4.752.471-5.79.191-1.037-.277-12.744-.945-9.98 4.124zM25.97 29.395c1.002 1.74-3.244 1.489-3.532-.271-.137-.842 1.535-3.196 3.532.271zM28.052 28.874c-1.026 1.636 2.933 2.252 3.297.446.172-.862-1.253-3.705-3.297-.446z"/><path fill="#FFF" d="M23.425 30.086c1.356-2.751 2.865.86 2.396 1.614.02-.647-3.596.823-2.396-1.614zM28.577 29.717c2.052-2.358 2.545 1.484 1.889 2.107.192-.622-3.706-.017-1.889-2.107z"/><path fill="#231F20" d="M20.841 38.173c0-.356 3.566-1.735 7.042-1.942 3.75-.223 7.612-.032 7.59 1.202.022.591-5.444-.15-8.3-.154-1.443-.003-6.332 1.633-6.332.894z"/><g fill="#FFF"><path d="M23.142 7.539c-.966-.969-1.007-1.021-.271-1.402 4.289-2.215 2.55 3.688.271 1.402z"/><path d="M23.557 5.796c-1.349.551-1.115 1.102-1.355.32-1.426-4.63 4.634-1.66 1.355-.32z"/><path d="M22.615 7.658c-.003-1.368-.011-1.435-.801-1.183-4.598 1.466.806 4.412.801 1.183z"/><path d="M20.945 6.707c1.394-.423 1.56.152 1.254-.606-1.814-4.491-4.643 1.634-1.254.606zM22.615 6.927l.829 3.614s.568-.022.92-.128c.354-.106-1.749-3.486-1.749-3.486z"/></g><path fill="#231F20" d="M41.416 49.772c-.365-.255-1.183-1.731.397-3.167 2.03-1.885 3.938-1.56 6.366-4.993-.408 1.816.768.483 1.223-.558.454-1.04-.249-.809.032-1.166.614-.783-.116.27.54.231 1.154-1.767.436-2.566.126-3.338-.664-1.66-.408-.421.337.021 1.29.258-.886-2.876-.322-2.508.59.386.867.087-.571-2.716-1.858-3.252-.278-.194.332-.473-.018-.992-.878-2.856-1.843-4.132-.549-.728-1.031-1.841-.609-1.437 1.425 1.367-.239-1.727-.667-2.207-1.631-1.826-2.166-3.316-2.809-3.968-3.468-3.512-3.302-5.444-3.958-7.23"/><path fill="none" d="M0 .417h51v59H0z"/></svg>