<?xml version="1.0" encoding="utf-8"?>
<!-- Generator: Adobe Illustrator 15.0.0, SVG Export Plug-In . SVG Version: 6.00 Build 0)  -->
<!DOCTYPE svg PUBLIC "-//W3C//DTD SVG 1.1//EN" "http://www.w3.org/Graphics/SVG/1.1/DTD/svg11.dtd">
<svg version="1.1" id="Layer_1" xmlns="http://www.w3.org/2000/svg" xmlns:xlink="http://www.w3.org/1999/xlink" x="0px" y="0px"
	 width="1656px" height="1368px" viewBox="0 0 1656 1368" enable-background="new 0 0 1656 1368" xml:space="preserve">
<g>
	<g>
		<path fill="#231F20" d="M429.605,584.137c0,0-70.906,3.117-79.848,2.547c-8.945-0.566,107.293,3.973,64.125-38.582
			c7.398-4.258,28.074,4.848,37.512-9.078c50.977-75.219,43.59-122.043,49.469-156.578c-14.188-57.273-54.785-87.637,26.73-171.477
			c83.328-130.332,550.676-31.293,612.27,75.84c17.191,29.895,55.219,90.316,9.949,140.441c-19.844,21.98-13.32,86.375,0,99.859
			c13.332,13.488,34.531,40.852,52.633,37.832c7.398-1.238-22.605,6.215-24.191,14.461c8.848,52.488,139.305,78.066,144.211,79.344
			c0,0-54.469,4.129-79.848,4.676c-25.375,0.559-16.961,56.938,29.934,20.676c-1.98,33.961-27.941,42.723-27.941,42.723
			s-3.621,66.926,2.5,78.941c6.121,12.008,22.949,38.559,75.355,60.137c-13.074,7.227-52.902-7.344-51.895-2.293
			c9.98,53.715-15.523,54.055-15.523,54.055s-41.863,24.914,27.992,1.5c-20.469,74.371-77.23,45.129-77.23,45.129
			s-12.605,15.977,27.824,27.871c-23.445,17.895-46.406-7.355-46.406-7.355s-5.988,15.609-2.988,20.211
			c2.988,4.582-21.664-22.949-24.547-14.922c-11.879,32.367,24.059,46.594,31.031,69.094
			c-16.453,81.27-204.336,100.098-209.555,102.391c-29.441,81.715-82.012,48.363-95.387,41.855
			c-13.383-6.512-178.484,5.777-177.051-2.387c-27.941,3.672-40.41,16.984-56.379,21.121c-15.965,4.137-94.578,5.992-104.352,8.508
			c-12.898,0,39.582-62.621,42.574-77.312c5.215-17.164-12.07-0.992-21.547,14.625c-9.473,15.621-1.098-20.082-12.473-18.359
			c-20.402,3.07-22.949,34.895-51.891,44.984c-30.938,10.105,91.047-120.219,96.789-126.051
			c5.746-5.836,12.215-57.195-28.789-46.688c-42.035-41.562-83.742-39.402-109.141-39.086c12.949,40.219-9.25,14.398-20.969-2.91
			c-11.711-17.305-4.926-46.523-6.473-54.746c-1.543-8.23-12.023,28.652-16.336,10.5c-26.824-28.09-14.492-53.914-15.418-66.102
			c-1.066-14.152-11.102,54.473-11.102-21.281c0.949-16.066,2.16-42.551-1.227-30.637c-11.102,57.027-18.195-20.703,1.227-51.074
			c4.934-17.578-7.535-5.719-10.484,1.996c-31.75,83.402-10.898,19.203,7.402-82.559c12.645-26.949-19.422,10.504-30.828,9.648
			c-6.219-0.461,28.512-26.238-16.211-17.871c-14.207,2.66,8.809-10.785-7.219-19.008c10.172,1.133,19.109-4.824,17.879-16.176
			c11.719-5.387-8.633,5.391,31.445-1.984c40.082-7.379-13.871-26.098,19.734-27.234c16.031,2.273,7.523-13.125,18.805-18.723
			C447.801,591.227,429.605,584.137,429.605,584.137z"/>
		<path fill="#FFFFFF" d="M589.328,492.664c-23.504-163.457,167.723-117.617,221.984-117.617
			c67.426-3.785,215.008-45.164,213.598,59.984c51.18,44.258,75.426,149.129,53.516,151.582
			c-248.918-6-24.113,36.105-97.973,132.879c59.199,49.191,127.012,128.109,80.57,270.602
			c-65.215,78.676-27.16,119.512-51.82,131.418c-24.672,11.91-53.473,18.367-84.98,21.781
			c-31.512,3.402-146.531-54.816-210.227-14.812c-20.363-40.02,107.047-41.922,118.148-97.527
			c4.543,33.957,42.07,96.836,39.539,53.883c18.559-41.406,51.137,36.766,47.09,4.059c-7.926-63.996,144.73-105.109,131.441-151.527
			c6.773-90.207-37.496-17.984-102.742,17.934c-61.566,34.793-183.211-2.762-231.527-36.453
			c-48.703-33.949-68.258-139.371-23.02-166.695c74.176-44.805,6.883-77.945,38.906-106.883
			c30.609-34.098,142.961-77.039-122.168-60.703C641.344,520.23,614.332,597.016,589.328,492.664z"/>
		<path fill="#231F20" d="M565.832,543.305c0,16.508,121.531,2.82,136.23-7.07c6.492,19.863,30.27,19.863,58.387,7.07
			c-15.141,14.441,7.703,15.676,22.68,8.555c21.637-10.281,39.48-13.332,57.035-13.332c20.105,0,54.445-1.137,62.789,4.777
			c41.012,5.484,40.512,5.602,41.293-13.699c8.898,10.711,31.91,15.977,49.734,6.012c16.664-9.309,49.043,13.762,49.043,13.762
			c17.078,2.574,12.059-33.641,0.395-60.152c-18.508-33.867-88.621-63.695-187.246-25.336c-43.973,3.945-87.5,8.66-106.605,3.516
			C730.477,462.277,514.941,449.992,565.832,543.305z"/>
		<path fill="#231F20" d="M835.711,685.555c18.438,32.039-59.715,27.406-65.035-5.012
			C768.145,665.055,798.922,621.723,835.711,685.555z"/>
		<path fill="#231F20" d="M874.047,675.953c-18.883,30.113,53.98,41.469,60.672,8.223
			C937.914,668.309,911.656,615.969,874.047,675.953z"/>
		<path fill="#FFFFFF" d="M788.852,698.285c24.961-50.664,52.742,15.832,44.09,29.699
			C833.324,716.078,766.758,743.152,788.852,698.285z"/>
		<path fill="#FFFFFF" d="M883.719,691.473c37.762-43.422,46.852,27.328,34.746,38.801
			C922.023,718.832,850.246,729.949,883.719,691.473z"/>
		<path fill="#231F20" d="M741.266,847.152c0-6.543,65.684-31.938,129.668-35.754c69.035-4.102,140.148-0.602,139.711,22.129
			c0.438,10.867-100.223-2.758-152.781-2.836C831.273,830.66,741.266,860.77,741.266,847.152z"/>
		<g>
			<g>
				<path fill="#FFFFFF" d="M783.637,283.18c-17.793-17.848-18.539-18.805-4.984-25.816
					C857.613,216.574,825.594,325.258,783.637,283.18z"/>
				<path fill="#FFFFFF" d="M791.27,251.082c-24.824,10.137-20.523,20.289-24.957,5.891
					C740.098,171.746,851.637,226.406,791.27,251.082z"/>
				<path fill="#FFFFFF" d="M773.934,285.371c-0.031-25.195-0.188-26.41-14.73-21.777
					C674.527,290.586,774.031,344.801,773.934,285.371z"/>
				<path fill="#FFFFFF" d="M743.199,267.859c25.66-7.793,28.715,2.801,23.074-11.176
					C732.867,174.02,680.781,286.793,743.199,267.859z"/>
				<path fill="#FFFFFF" d="M773.934,271.906l15.273,66.535c0,0,10.465-0.418,16.949-2.355
					C812.637,334.129,773.934,271.906,773.934,271.906z"/>
			</g>
		</g>
	</g>
</g>
</svg>
