<?xml version="1.0" encoding="utf-8"?>
<!-- Generator: Adobe Illustrator 15.0.0, SVG Export Plug-In  -->
<!DOCTYPE svg PUBLIC "-//W3C//DTD SVG 1.1//EN" "http://www.w3.org/Graphics/SVG/1.1/DTD/svg11.dtd" [
	<!ENTITY ns_flows "http://ns.adobe.com/Flows/1.0/">
]>
<svg version="1.1"
	 xmlns="http://www.w3.org/2000/svg" xmlns:xlink="http://www.w3.org/1999/xlink" xmlns:a="http://ns.adobe.com/AdobeSVGViewerExtensions/3.0/"
	 x="0px" y="0px" width="51px" height="60px" viewBox="0 -0.583 51 60" overflow="visible" enable-background="new 0 -0.583 51 60"
	 xml:space="preserve">
<defs>
</defs>
<g>
	<g>
		<path fill="#231F20" d="M45.09,49.444c-0.895,4.415-11.098,5.438-11.382,5.562c-1.6,4.438-4.454,2.626-5.182,2.273
			c-0.726-0.354-9.693,0.313-9.615-0.13c-1.519,0.2-2.196,0.923-3.062,1.146c-0.868,0.226-5.138,0.326-5.669,0.463
			c-0.7,0,2.151-3.401,2.312-4.2c0.283-0.932-0.655-0.054-1.17,0.795s-0.06-1.091-0.678-0.996c-1.108,0.166-1.246,1.895-2.818,2.442
			c-1.681,0.55,4.944-6.53,5.256-6.846c0.312-0.317,0.849-1.918-0.968-3.042c-2.339-1.482-4.155-0.814-7.17-3.748
			c0.733,1.712-0.667,0.615-1.303-0.325c-0.638-0.94,0.096-0.84-0.246-1.141c-0.745-0.658,0.163,0.244-0.489,0.326
			c-1.455-1.526-0.896-2.444-0.732-3.26c0.352-1.753,0.326-0.488-0.325,0.082c-1.224,0.489,0.345-2.989-0.142-2.524
			c-0.511,0.488-0.837,0.243,0.065-2.773c1.234-3.537,0.238-0.242-0.413-0.405c-0.163-0.978,0.343-2.968,1.06-4.398
			c0.407-0.815,0.678-1.998,0.337-1.523c-1.152,1.604-0.079-1.741,0.254-2.291c1.271-2.095,1.524-3.657,2.038-4.413
			c2.768-4.086,2.253-5.956,2.571-7.832c-0.771-3.111-2.976-4.76,1.453-9.313c4.524-7.08,29.911-1.7,33.256,4.118
			c0.934,1.624,2.998,4.906,0.54,7.629"/>
		<path fill="#FFFFFF" d="M12.588,18.918c-1.277-8.879,9.11-6.389,12.058-6.389c3.662-0.205,11.678-2.454,11.601,3.259
			c2.78,2.403,4.099,8.1,2.907,8.232c-13.521-0.326-1.309,1.962-5.321,7.218c3.217,2.672,6.898,6.958,4.376,14.698
			c-3.541,4.273-1.476,6.491-2.814,7.138c-1.341,0.647-2.903,0.998-4.615,1.184c-1.712,0.185-7.96-2.978-11.419-0.805
			c-1.106-2.174,5.814-2.277,6.417-5.297c0.247,1.844,2.285,5.259,2.147,2.927c1.008-2.25,2.778,1.997,2.559,0.22
			c-0.432-3.476,7.86-5.709,7.139-8.23c0.368-4.899-2.036-0.977-5.58,0.975c-3.344,1.89-9.952-0.15-12.576-1.98
			c-2.646-1.844-3.708-7.569-1.25-9.054c4.029-2.435,0.373-4.234,2.113-5.806c1.662-1.853,7.765-4.185-6.636-3.297
			C15.413,20.415,13.945,24.586,12.588,18.918z"/>
		<path fill="#231F20" d="M11.311,21.669c0,0.896,6.601,0.152,7.399-0.385c0.354,1.079,1.645,1.079,3.172,0.385
			c-0.822,0.784,0.419,0.852,1.233,0.464c1.174-0.559,2.144-0.725,3.097-0.725c1.092,0,2.956-0.061,3.411,0.261
			c2.228,0.298,2.199,0.304,2.243-0.745c0.482,0.582,1.732,0.868,2.7,0.327c0.906-0.506,2.665,0.747,2.665,0.747
			c0.927,0.14,0.655-1.827,0.021-3.268c-1.006-1.839-4.813-3.459-10.171-1.376c-2.388,0.215-4.752,0.471-5.79,0.191
			C20.254,17.268,8.547,16.6,11.311,21.669z"/>
		<path fill="#231F20" d="M25.97,29.395c1.002,1.74-3.244,1.489-3.532-0.271C22.301,28.282,23.973,25.928,25.97,29.395z"/>
		<path fill="#231F20" d="M28.052,28.874c-1.026,1.636,2.933,2.252,3.297,0.446C31.521,28.458,30.096,25.615,28.052,28.874z"/>
		<path fill="#FFFFFF" d="M23.425,30.086c1.356-2.751,2.865,0.86,2.396,1.614C25.841,31.053,22.225,32.523,23.425,30.086z"/>
		<path fill="#FFFFFF" d="M28.577,29.717c2.052-2.358,2.545,1.484,1.889,2.107C30.658,31.202,26.76,31.807,28.577,29.717z"/>
		<path fill="#231F20" d="M20.841,38.173c0-0.356,3.566-1.735,7.042-1.942c3.75-0.223,7.612-0.032,7.59,1.202
			c0.022,0.591-5.444-0.15-8.3-0.154C25.73,37.276,20.841,38.912,20.841,38.173z"/>
		<g>
			<g>
				<path fill="#FFFFFF" d="M23.142,7.539c-0.966-0.969-1.007-1.021-0.271-1.402C27.16,3.922,25.421,9.825,23.142,7.539z"/>
				<path fill="#FFFFFF" d="M23.557,5.796c-1.349,0.551-1.115,1.102-1.355,0.32C20.776,1.486,26.836,4.456,23.557,5.796z"/>
				<path fill="#FFFFFF" d="M22.615,7.658c-0.003-1.368-0.011-1.435-0.801-1.183C17.216,7.941,22.62,10.887,22.615,7.658z"/>
				<path fill="#FFFFFF" d="M20.945,6.707c1.394-0.423,1.56,0.152,1.254-0.606C20.385,1.61,17.556,7.735,20.945,6.707z"/>
				<path fill="#FFFFFF" d="M22.615,6.927l0.829,3.614c0,0,0.568-0.022,0.92-0.128C24.718,10.307,22.615,6.927,22.615,6.927z"/>
			</g>
		</g>
	</g>
</g>
<path fill="#231F20" d="M41.416,49.772c-0.365-0.255-1.183-1.731,0.397-3.167c2.03-1.885,3.938-1.56,6.366-4.993
	c-0.408,1.816,0.768,0.483,1.223-0.558c0.454-1.04-0.249-0.809,0.032-1.166c0.614-0.783-0.116,0.27,0.54,0.231
	c1.154-1.767,0.436-2.566,0.126-3.338c-0.664-1.66-0.408-0.421,0.337,0.021c1.29,0.258-0.886-2.876-0.322-2.508
	c0.59,0.386,0.867,0.087-0.571-2.716c-1.858-3.252-0.278-0.194,0.332-0.473c-0.018-0.992-0.878-2.856-1.843-4.132
	c-0.549-0.728-1.031-1.841-0.609-1.437c1.425,1.367-0.239-1.727-0.667-2.207c-1.631-1.826-2.166-3.316-2.809-3.968
	c-3.468-3.512-3.302-5.444-3.958-7.23"/>
<rect id="_x3C_Slice_x3E__1_" y="0.417" fill="none" width="51" height="59"/>
</svg>
